<svg width="20.000000" height="20.000000" viewBox="0 0 20 20" fill="none" xmlns="http://www.w3.org/2000/svg" xmlns:xlink="http://www.w3.org/1999/xlink">
	<desc>
			Created with Pixso.
	</desc>
	<defs/>
	<path id="Vector" d="M10 0C15.52 0 20 4.47 20 10C20 15.52 15.52 20 10 20C4.47 20 0 15.52 0 10C0 4.47 4.47 0 10 0ZM10 2C7.87 2 5.84 2.84 4.34 4.34C2.84 5.84 2 7.87 2 10C2 12.12 2.84 14.15 4.34 15.65C5.84 17.15 7.87 18 10 18C12.12 18 14.15 17.15 15.65 15.65C17.15 14.15 18 12.12 18 10C18 7.87 17.15 5.84 15.65 4.34C14.15 2.84 12.12 2 10 2ZM10 4C10.24 4 10.48 4.08 10.66 4.25C10.84 4.41 10.96 4.63 10.99 4.88L11 5L11 9.58L13.7 12.29C13.88 12.47 13.99 12.71 13.99 12.96C14 13.22 13.91 13.46 13.74 13.66C13.58 13.85 13.34 13.97 13.09 13.99C12.84 14.01 12.58 13.94 12.38 13.79L12.29 13.7L9.29 10.7C9.13 10.55 9.03 10.34 9 10.13L9 10L9 5C9 4.73 9.1 4.48 9.29 4.29C9.48 4.1 9.73 4 10 4Z" fill="#0ABAB5" fill-opacity="1.000000" fill-rule="nonzero"/>
</svg>
