<svg width="26.414307" height="26.414062" viewBox="0 0 26.4143 26.4141" fill="none" xmlns="http://www.w3.org/2000/svg" xmlns:xlink="http://www.w3.org/1999/xlink">
	<path id="Vector" d="M2.11 25.7L0.7 24.3L11.8 13.2L0.7 2.11L2.11 0.7L13.2 11.8L24.3 0.7L25.7 2.11L14.61 13.2L25.7 24.3L24.3 25.7L13.2 14.61L2.11 25.7Z" fill="#000000" fill-opacity="1.000000" fill-rule="nonzero"/>
	<path id="Vector" d="M11.09 13.2L0.35 23.95L0 24.3L2.11 26.41L13.2 15.31L24.3 26.41L26.41 24.3L15.31 13.2L26.41 2.11L24.3 0L13.2 11.09L2.11 0L0 2.11L11.09 13.2ZM11.45 13.56L1.06 23.95L0.7 24.3L1.06 24.65L1.75 25.35L2.11 25.7L2.46 25.35L12.85 14.96L13.2 14.61L13.56 14.96L24.3 25.7L25.7 24.3L14.61 13.2L14.96 12.85L25.35 2.46L25.7 2.11L25.35 1.75L24.65 1.06L24.3 0.7L23.95 1.06L13.56 11.45L13.2 11.8L12.85 11.45L2.11 0.7L1.75 1.06L0.7 2.11L11.8 13.2L11.45 13.56Z" fill="#000000" fill-opacity="1.000000" fill-rule="evenodd"/>
</svg>
