<svg width="20.000000" height="20.000000" viewBox="0 0 20 20" fill="none" xmlns="http://www.w3.org/2000/svg" xmlns:xlink="http://www.w3.org/1999/xlink">
	<desc>
			Created with Pixso.
	</desc>
	<defs/>
	<path id="Vector" d="M14.8 12.26C14.8 13.14 15.05 13.49 15.7 13.49C17.15 13.49 18.07 11.64 18.07 8.56C18.07 3.85 14.65 1.6 10.37 1.6C5.97 1.6 1.97 4.55 1.97 10.13C1.97 15.47 5.47 18.37 10.85 18.37C12.67 18.37 13.9 18.17 15.77 17.54L16.17 19.22C14.32 19.82 12.35 20 10.82 20C3.77 20 0 16.12 0 10.13C0 4.1 4.37 0 10.4 0C16.67 0 20 3.75 20 8.36C20 12.26 18.77 15.24 14.92 15.24C13.17 15.24 12.02 14.54 11.87 12.99C11.42 14.71 10.22 15.24 8.59 15.24C6.42 15.24 4.6 13.56 4.6 10.18C4.6 6.78 6.2 4.68 9.07 4.68C10.6 4.68 11.55 5.28 11.97 6.23L12.7 4.9L14.8 4.9L14.8 12.26L14.8 12.26ZM11.72 8.96C11.72 7.58 10.7 7 9.85 7C8.92 7 7.9 7.75 7.9 9.96C7.9 11.71 8.67 12.69 9.85 12.69C10.67 12.69 11.72 12.16 11.72 10.71L11.72 8.96Z" fill="#0ABAB5" fill-opacity="1.000000" fill-rule="nonzero"/>
</svg>
