<svg width="33.729126" height="32.000000" viewBox="0 0 33.7291 32" fill="none" xmlns="http://www.w3.org/2000/svg" xmlns:xlink="http://www.w3.org/1999/xlink">
	<desc>
			Created with Pixso.
	</desc>
	<defs/>
	<path id="Star" d="M16.17 1.44C16.44 0.85 17.28 0.85 17.55 1.44L21.42 10.17C21.52 10.41 21.75 10.58 22.01 10.61L32.05 11.89C32.72 11.97 32.95 12.82 32.42 13.23L24.7 19.16C24.46 19.34 24.35 19.64 24.42 19.93L26.91 30.03C27.07 30.7 26.34 31.21 25.77 30.84L17.27 25.23C17.02 25.06 16.7 25.06 16.45 25.23L7.95 30.84C7.38 31.21 6.65 30.7 6.81 30.03L9.29 19.93C9.37 19.64 9.26 19.34 9.02 19.16L1.3 13.23C0.77 12.82 1 11.97 1.67 11.89L11.71 10.61C11.97 10.58 12.2 10.41 12.3 10.17L16.17 1.44Z" fill="#0ABAB5" fill-opacity="1.000000" fill-rule="nonzero"/>
	<path id="Star" d="M21.42 10.17C21.52 10.41 21.75 10.58 22.01 10.61L32.05 11.89C32.72 11.97 32.95 12.82 32.42 13.23L24.7 19.16C24.46 19.34 24.35 19.64 24.42 19.93L26.91 30.03C27.07 30.7 26.34 31.21 25.77 30.84L17.27 25.23C17.02 25.06 16.7 25.06 16.45 25.23L7.95 30.84C7.38 31.21 6.65 30.7 6.81 30.03L9.29 19.93C9.37 19.64 9.26 19.34 9.02 19.16L1.3 13.23C0.77 12.82 1 11.97 1.67 11.89L11.71 10.61C11.97 10.58 12.2 10.41 12.3 10.17L16.17 1.44C16.44 0.85 17.28 0.85 17.55 1.44L21.42 10.17Z" stroke="#0ABAB5" stroke-opacity="1.000000" stroke-width="2.000000" stroke-linejoin="round"/>
</svg>
