<svg width="20.000000" height="20.000000" viewBox="0 0 20 20" fill="none" xmlns="http://www.w3.org/2000/svg" xmlns:xlink="http://www.w3.org/1999/xlink">
	<desc>
			Created with Pixso.
	</desc>
	<defs/>
	<path id="Vector" d="M4.02 8.65C5.62 11.8 8.19 14.36 11.34 15.97L13.78 13.53C14.08 13.23 14.53 13.13 14.92 13.26C16.16 13.67 17.51 13.89 18.88 13.89C19.5 13.89 20 14.39 20 15.01L20 18.88C20 19.5 19.5 20 18.88 20C8.45 20 0 11.54 0 1.11C0 0.5 0.5 0 1.11 0L5 0C5.61 0 6.11 0.5 6.11 1.11C6.11 2.5 6.33 3.83 6.74 5.07C6.86 5.46 6.77 5.89 6.46 6.21L4.02 8.65Z" fill="#0ABAB5" fill-opacity="1.000000" fill-rule="nonzero"/>
</svg>
