<svg width="140.969971" height="32.101562" viewBox="0 0 140.97 32.1016" fill="none" xmlns="http://www.w3.org/2000/svg" xmlns:xlink="http://www.w3.org/1999/xlink">
	<desc>
			Created with Pixso.
	</desc>
	<defs/>
	<path id="LOGO" d="M38.71 30.63Q41.82 32.1 45.63 32.1Q48.41 32.1 50.96 31.32Q52.67 30.8 54.27 29.92Q56.62 28.64 58.41 26.81Q59.66 25.53 60.64 23.98Q61.74 22.23 62.34 20.31Q63.02 18.11 63.02 15.7Q63.02 13.83 62.62 12.07Q62.14 9.98 61.11 8.03Q60.3 6.5 59.21 5.23Q57.7 3.47 55.63 2.2Q55.22 1.94 54.79 1.72Q51.53 2.09e-5 47.36 2.09e-5Q46.48 2.09e-5 45.6 0.08Q42.3 0.38 39.11 1.83Q37.22 2.69 35.65 3.95Q33.87 5.37 32.5 7.3Q32.12 7.84 31.79 8.42Q29.93 11.7 29.93 16.05Q29.93 18.98 30.81 21.62Q31.24 22.9 31.87 24.1Q32.84 25.91 34.19 27.35Q35.6 28.85 37.43 29.94Q38.05 30.32 38.71 30.63ZM78.38 29.99Q82.54 32.1 88.19 32.1Q93.29 32.1 99.69 30.71Q100.03 30.61 100.13 30.51Q100.23 30.42 100.23 30.11Q100.23 29.87 100.05 28.93Q99.88 27.98 99.88 25.76Q99.88 22.93 99.98 21.79Q100.08 20.65 100.45 20.29Q100.83 19.92 101.72 19.96Q101.8 19.96 101.85 19.93Q101.96 19.85 101.94 19.61Q101.92 19.34 101.8 19.28Q101.76 19.26 101.72 19.26Q98.99 19.42 96.46 19.42Q93.84 19.42 89.63 19.17Q89.61 19.17 89.6 19.17Q89.52 19.18 89.46 19.3Q89.43 19.35 89.41 19.4Q89.38 19.48 89.38 19.57Q89.38 19.83 89.51 19.92Q89.57 19.96 89.68 19.96Q92.11 19.96 93.07 20.32Q93.52 20.47 93.83 20.78Q94.18 21.13 94.33 21.67Q94.63 22.69 94.63 25.26Q94.63 27.79 94.14 29.08Q93.77 30.03 93.08 30.53Q92.84 30.7 92.55 30.81Q91.47 31.26 89.43 31.26Q86.86 31.26 84.63 30.39Q83.47 29.93 82.39 29.23Q81.76 28.82 81.19 28.34Q78.92 26.46 77.51 23.53Q75.75 19.86 75.75 15.2Q75.75 10.94 77.26 7.72Q78.62 4.83 80.88 3.14Q81.14 2.95 81.4 2.78Q82.67 1.94 84.06 1.5Q85.55 1.04 87.2 1.04Q89.88 1.04 92 2.14Q92.3 2.29 92.59 2.47Q94.92 3.91 96.36 5.85Q97.8 7.77 98.44 9.41Q98.46 9.48 98.51 9.52Q98.59 9.59 98.76 9.56Q99 9.51 99.03 9.4Q99.04 9.38 99.04 9.36L98.4 2.47Q98.35 1.77 98.27 1.65Q98.2 1.53 97.66 1.34Q96.22 0.73 93.84 0.37Q91.95 0.07 90.06 0.01Q89.57 2.09e-5 89.08 2.09e-5Q83.58 2.09e-5 79.16 2.05Q75.73 3.65 73.45 6.27Q72.81 7 72.26 7.82Q71.38 9.12 70.81 10.55Q69.77 13.19 69.77 16.24Q69.77 19.02 70.65 21.49Q71.17 22.93 71.99 24.27Q72.42 24.97 72.92 25.61Q75.02 28.29 78.38 29.99ZM116.65 30.63Q119.76 32.1 123.57 32.1Q126.36 32.1 128.9 31.32Q130.61 30.8 132.22 29.92Q134.57 28.64 136.35 26.81Q137.61 25.53 138.58 23.98Q139.69 22.23 140.28 20.31Q140.97 18.11 140.97 15.7Q140.97 13.83 140.56 12.07Q140.09 9.98 139.05 8.03Q138.25 6.5 137.15 5.23Q135.64 3.47 133.57 2.2Q133.16 1.94 132.74 1.72Q129.47 2.09e-5 125.3 2.09e-5Q124.42 2.09e-5 123.55 0.08Q120.25 0.38 117.05 1.83Q115.16 2.69 113.59 3.95Q111.82 5.37 110.45 7.3Q110.06 7.84 109.74 8.42Q107.87 11.7 107.87 16.05Q107.87 18.98 108.76 21.62Q109.18 22.9 109.82 24.1Q110.78 25.91 112.14 27.35Q113.54 28.85 115.37 29.94Q116 30.32 116.65 30.63ZM9.34 29.16Q9.15 28.58 9.15 27.29L9.15 4.6Q9.15 3.12 9.39 2.4Q9.51 2.06 9.74 1.82Q10 1.55 10.39 1.41Q11.14 1.13 12.67 1.13Q12.71 1.13 12.73 1.12Q12.83 1.07 12.83 0.84Q12.83 0.6 12.73 0.55Q12.7 0.54 12.67 0.54L10.14 0.59Q7.87 0.68 6.38 0.68Q4.89 0.68 2.62 0.59L0.09 0.54Q0.08 0.54 0.07 0.54Q0 0.57 0 0.84Q0 1.1 0.07 1.13Q0.08 1.13 0.09 1.13Q1.63 1.13 2.37 1.41Q2.8 1.57 3.08 1.87Q3.27 2.09 3.38 2.38Q3.66 3.07 3.66 4.56L3.66 27.49Q3.66 28.98 3.38 29.7Q3.25 30.05 3.01 30.29Q2.76 30.54 2.39 30.67Q1.68 30.91 0.09 30.91Q0.08 30.91 0.07 30.91Q0 30.94 0 31.21Q0 31.47 0.07 31.5Q0.08 31.5 0.09 31.5L23.47 31.5Q23.87 31.5 24.04 31.33Q24.22 31.15 24.22 30.77Q24.22 27.49 24.66 22.59Q24.66 22.54 24.54 22.47Q24.42 22.38 24.32 22.38Q24.16 22.38 24.12 22.45Q24.11 22.47 24.11 22.49Q23.57 24.53 22.39 26.08Q21.54 27.2 20.35 28.06Q19.69 28.54 18.96 28.91Q16.62 30.11 13.66 30.11L11.98 30.11Q10.69 30.11 10.12 29.92Q9.84 29.82 9.65 29.64Q9.45 29.45 9.34 29.16ZM50.15 30.37Q48.8 30.86 47.26 30.86Q45.87 30.86 44.61 30.47Q42.94 29.95 41.49 28.73Q38.94 26.59 37.47 22.81Q36.02 19.02 36.02 14.21Q36.02 8.12 38.44 4.74Q39.44 3.35 40.78 2.52Q42.72 1.34 45.38 1.34Q47.6 1.34 49.46 2.15Q50.55 2.62 51.52 3.37Q51.61 3.44 51.7 3.51Q54.2 5.51 55.53 8.98Q56.92 12.57 56.92 17.13Q56.92 21.45 55.68 24.55Q54.44 27.65 52.24 29.25Q51.26 29.97 50.15 30.37ZM128.1 30.37Q126.74 30.86 125.2 30.86Q123.82 30.86 122.56 30.47Q120.89 29.95 119.44 28.73Q116.88 26.59 115.42 22.81Q113.97 19.02 113.97 14.21Q113.97 8.12 116.39 4.74Q117.38 3.35 118.72 2.52Q120.66 1.34 123.33 1.34Q125.54 1.34 127.4 2.15Q128.49 2.62 129.46 3.37Q129.55 3.44 129.64 3.51Q132.15 5.51 133.48 8.98Q134.87 12.57 134.87 17.13Q134.87 21.45 133.62 24.55Q132.39 27.65 130.19 29.25Q129.2 29.97 128.1 30.37Z" fill="#2B2A29" fill-opacity="1.000000" fill-rule="evenodd"/>
</svg>
