<svg width="89.465576" height="15.597656" viewBox="0 0 89.4656 15.5977" fill="none" xmlns="http://www.w3.org/2000/svg" xmlns:xlink="http://www.w3.org/1999/xlink">
	<desc>
			Created with Pixso.
	</desc>
	<defs/>
	<path id="Брюки" d="M48.32 0.71Q46.89 0 45.1 0Q44.75 0 44.41 0.02Q42.87 0.14 41.38 0.81Q40.6 1.16 39.93 1.65Q39.03 2.32 38.33 3.25Q38.16 3.47 38.01 3.71Q37.08 5.18 36.94 7.15L33.55 7.15L33.55 2.25Q33.55 1.53 33.71 1.18Q33.75 1.08 33.82 1Q33.98 0.79 34.29 0.69Q34.71 0.55 35.59 0.55Q35.6 0.55 35.6 0.54Q35.64 0.53 35.64 0.41Q35.64 0.27 35.6 0.26Q35.6 0.26 35.59 0.26L34.32 0.28Q33.17 0.33 32.33 0.33Q31.71 0.33 30.6 0.28L29.33 0.26Q29.32 0.26 29.32 0.26Q29.28 0.27 29.28 0.41Q29.28 0.53 29.32 0.54Q29.32 0.55 29.33 0.55Q30.17 0.55 30.58 0.68Q30.87 0.77 31.02 0.97Q31.09 1.05 31.13 1.15Q31.27 1.48 31.27 2.2L31.27 13.31Q31.27 14.03 31.13 14.39Q31.08 14.5 31.01 14.58Q30.86 14.77 30.58 14.85Q30.17 14.97 29.31 14.97Q29.3 14.97 29.3 14.97Q29.26 14.99 29.26 15.12Q29.26 15.24 29.3 15.26Q29.3 15.26 29.31 15.26Q30.12 15.26 30.58 15.24L32.33 15.21L34.32 15.24Q34.78 15.26 35.59 15.26Q35.6 15.26 35.6 15.26Q35.64 15.24 35.64 15.12Q35.64 14.99 35.6 14.97Q35.6 14.97 35.59 14.97Q34.68 14.97 34.26 14.85Q33.96 14.77 33.8 14.57Q33.74 14.49 33.69 14.39Q33.55 14.03 33.55 13.31L33.55 7.77L36.92 7.77Q36.92 9.29 37.39 10.65Q37.57 11.17 37.83 11.67Q38.35 12.7 39.13 13.49Q39.7 14.06 40.4 14.5Q40.74 14.71 41.09 14.88Q42.51 15.55 44.24 15.55Q45.48 15.55 46.63 15.2Q47.49 14.94 48.29 14.49Q49.26 13.94 50.03 13.19Q50.74 12.49 51.27 11.61Q51.76 10.82 52.03 9.96Q52.39 8.84 52.39 7.6Q52.39 6.65 52.18 5.76Q51.96 4.79 51.49 3.89Q51.04 3 50.39 2.29Q49.76 1.59 48.93 1.06Q48.64 0.87 48.32 0.71ZM89.41 14.98Q89.4 14.97 89.38 14.97Q88.52 14.97 88.12 14.85Q87.88 14.78 87.73 14.61Q87.64 14.51 87.59 14.39Q87.45 14.03 87.45 13.31L87.45 0.21Q87.45 0.21 87.44 0.2Q87.43 0.14 87.31 0.09Q87.18 0.04 87.01 0.04Q86.75 0.04 86.68 0.11L76.83 12.55L76.83 2.2Q76.83 1.48 76.97 1.15Q77.02 1.05 77.08 0.97Q77.24 0.77 77.53 0.68Q77.94 0.55 78.85 0.55Q78.87 0.55 78.88 0.54Q78.93 0.51 78.93 0.41Q78.93 0.29 78.88 0.27Q78.87 0.26 78.85 0.26L77.7 0.28Q76.55 0.33 75.69 0.33Q75.03 0.33 73.88 0.28L72.59 0.26Q72.57 0.26 72.56 0.26Q72.52 0.29 72.52 0.41Q72.52 0.52 72.56 0.54Q72.57 0.55 72.59 0.55Q73.45 0.55 73.85 0.68Q74.12 0.77 74.27 0.95Q74.34 1.04 74.38 1.15Q74.53 1.48 74.53 2.2L74.53 15.43Q74.53 15.45 74.54 15.47Q74.59 15.59 74.96 15.59Q75.23 15.59 75.3 15.5L85.14 3.07L85.14 13.31Q85.14 14.06 84.99 14.4Q84.95 14.49 84.89 14.57Q84.74 14.77 84.44 14.85Q84.03 14.97 83.12 14.97Q83.11 14.97 83.1 14.98Q83.05 15 83.05 15.12Q83.05 15.23 83.1 15.25Q83.11 15.26 83.12 15.26Q83.84 15.26 84.28 15.24L86.29 15.21L88.09 15.24Q88.57 15.26 89.38 15.26Q89.4 15.26 89.42 15.25Q89.46 15.23 89.46 15.12Q89.46 15 89.41 14.98ZM19.36 14.34Q19.19 13.99 19.19 13.22L19.19 2.25Q19.19 1.55 19.3 1.23Q19.38 1.03 19.52 0.91Q19.61 0.84 19.73 0.79Q20.02 0.67 20.6 0.67Q21.67 0.67 22.41 1.15Q22.77 1.38 23.05 1.71Q23.94 2.75 23.94 4.65Q23.94 6.57 23.07 7.61Q22.55 8.23 21.89 8.47Q21.46 8.64 20.96 8.64Q20.5 8.64 20.12 8.54Q20.11 8.53 20.1 8.53Q20.07 8.53 20.04 8.59Q20 8.66 20 8.73Q20 8.81 20.04 8.84Q20.05 8.85 20.08 8.85Q20.53 8.97 21.2 8.97Q21.54 8.97 21.87 8.93Q22.79 8.83 23.69 8.44Q24.33 8.16 24.85 7.73Q25.31 7.36 25.68 6.86Q25.8 6.69 25.91 6.51Q26.46 5.56 26.46 4.29Q26.46 2.76 25.72 1.82Q25.45 1.47 25.07 1.2Q23.7 0.19 21.32 0.19Q20.65 0.19 20.16 0.21Q19.67 0.24 19.38 0.26Q18.59 0.33 18.03 0.33Q17.39 0.33 16.33 0.28L15.08 0.26Q15.07 0.26 15.06 0.27Q15.01 0.29 15.01 0.41Q15.01 0.51 15.05 0.54Q15.07 0.55 15.08 0.55Q15.88 0.55 16.24 0.68Q16.48 0.76 16.61 0.92Q16.7 1.02 16.75 1.15Q16.88 1.48 16.88 2.2L16.88 13.31Q16.88 14.06 16.75 14.4Q16.7 14.53 16.61 14.63Q16.47 14.78 16.26 14.85Q15.9 14.97 15.08 14.97Q15.07 14.97 15.06 14.98Q15.01 15 15.01 15.12Q15.01 15.23 15.05 15.25Q15.07 15.26 15.08 15.26Q15.88 15.26 16.33 15.24L18.06 15.21L20.15 15.24Q20.7 15.26 21.68 15.26Q21.7 15.26 21.71 15.25Q21.75 15.23 21.75 15.12Q21.75 15 21.71 14.98Q21.7 14.97 21.68 14.97Q20.58 14.97 20.06 14.83Q19.57 14.69 19.38 14.38Q19.37 14.36 19.36 14.34ZM10.23 7.79Q8.66 6.79 6.14 6.79Q5.88 6.79 5.63 6.8Q4.92 6.82 4.22 6.93L4.22 2.34Q4.22 1.41 4.52 1.1Q4.82 0.79 5.73 0.79L6.86 0.79Q7.7 0.79 8.36 1.13Q8.76 1.33 9.1 1.66Q10 2.54 10.31 4.22Q10.32 4.23 10.33 4.24Q10.36 4.29 10.47 4.28Q10.57 4.27 10.6 4.22Q10.6 4.21 10.6 4.2L10.36 0.76Q10.36 0.43 10.29 0.35Q10.22 0.26 9.96 0.26L0.09 0.26Q0.08 0.26 0.08 0.26Q0.04 0.27 0.04 0.41Q0.04 0.53 0.08 0.54Q0.08 0.55 0.09 0.55Q0.88 0.55 1.26 0.68Q1.51 0.76 1.66 0.94Q1.73 1.03 1.78 1.15Q1.91 1.48 1.91 2.2L1.91 13.31Q1.91 14.03 1.76 14.39Q1.71 14.53 1.6 14.64Q1.47 14.78 1.25 14.85Q0.88 14.97 0.07 14.97Q0.05 14.97 0.04 14.98Q0 15 0 15.12Q0 15.23 0.04 15.25Q0.05 15.26 0.07 15.26Q0.86 15.26 1.31 15.24L3.04 15.21Q3.66 15.21 4.18 15.24Q4.7 15.26 5.03 15.28Q5.95 15.35 6.57 15.35Q8.08 15.35 9.27 14.78Q10.16 14.35 10.75 13.67Q10.96 13.44 11.13 13.17Q11.35 12.83 11.5 12.45Q11.8 11.71 11.8 10.84Q11.8 9.63 11.25 8.79Q10.87 8.2 10.23 7.79ZM70.73 14.97Q70.73 14.97 70.72 14.97Q70.36 14.96 70.03 14.86Q69.61 14.74 69.22 14.48Q68.54 14.01 67.92 13.24Q67.31 12.48 66.06 10.75Q65.01 9.26 64.47 8.63Q63.93 7.99 63.37 7.68Q62.82 7.36 62.01 7.29L65.23 3.24Q66.21 1.99 67.41 1.27Q68.61 0.55 69.74 0.55Q69.75 0.55 69.76 0.54Q69.81 0.52 69.81 0.41Q69.81 0.29 69.76 0.26Q69.75 0.26 69.74 0.26L68.75 0.28Q67.79 0.33 66.91 0.33Q66.09 0.33 65.08 0.28L64 0.26Q64 0.26 63.99 0.26Q63.95 0.27 63.95 0.41Q63.95 0.53 63.99 0.54Q64 0.55 64 0.55Q64.63 0.55 64.88 0.85Q65.06 1.06 65.06 1.41Q65.06 2.23 64.05 3.62L61.41 7.27L61.24 7.27Q60.28 7.27 59.64 7.29L59.64 2.25Q59.64 1.53 59.78 1.18Q59.83 1.06 59.92 0.96Q60.07 0.78 60.32 0.69Q60.71 0.55 61.55 0.55Q61.57 0.55 61.58 0.54Q61.63 0.51 61.63 0.41Q61.63 0.29 61.58 0.27Q61.57 0.26 61.55 0.26L60.28 0.28Q59.13 0.33 58.36 0.33Q57.71 0.33 56.66 0.28L55.41 0.26Q55.4 0.26 55.38 0.27Q55.34 0.29 55.34 0.41Q55.34 0.51 55.38 0.54Q55.39 0.55 55.41 0.55Q56.25 0.55 56.64 0.68Q56.91 0.77 57.07 0.95Q57.14 1.04 57.18 1.15Q57.33 1.48 57.33 2.2L57.33 13.31Q57.33 14.03 57.18 14.39Q57.13 14.51 57.05 14.6Q56.9 14.77 56.64 14.85Q56.25 14.97 55.39 14.97Q55.37 14.97 55.36 14.98Q55.31 15 55.31 15.12Q55.31 15.23 55.36 15.25Q55.37 15.26 55.39 15.26Q56.18 15.26 56.64 15.24L58.36 15.21L60.26 15.24Q60.74 15.26 61.55 15.26Q61.57 15.26 61.58 15.25Q61.63 15.23 61.63 15.12Q61.63 15 61.58 14.98Q61.57 14.97 61.55 14.97Q60.69 14.97 60.3 14.85Q60.08 14.78 59.94 14.63Q59.84 14.53 59.78 14.39Q59.64 14.03 59.64 13.31L59.64 7.7L59.73 7.7Q60.52 7.7 61 7.93Q61.48 8.16 61.93 8.7Q62.37 9.24 63.33 10.6L63.76 11.23Q65.2 13.29 65.8 14.08Q66.4 14.87 66.66 15.07Q66.75 15.14 66.86 15.18Q67.03 15.26 67.24 15.26L70.72 15.26Q70.73 15.26 70.73 15.26Q70.77 15.24 70.77 15.12Q70.77 14.99 70.73 14.97ZM46.38 14.69Q45.67 14.97 44.86 14.97Q44.12 14.97 43.45 14.75Q42.67 14.49 41.99 13.93Q40.73 12.88 40.01 11.03Q39.29 9.19 39.29 6.91Q39.29 3.96 40.49 2.29Q40.97 1.61 41.62 1.21Q42.59 0.62 43.92 0.62Q45.05 0.62 45.98 1.03Q46.48 1.26 46.93 1.6Q46.95 1.62 46.97 1.63Q48.23 2.61 48.91 4.34Q49.61 6.09 49.61 8.3Q49.61 10.39 48.98 11.9Q48.36 13.41 47.29 14.19Q46.86 14.51 46.38 14.69ZM8.6 13.96Q7.82 14.8 6.11 14.8Q4.96 14.8 4.59 14.44Q4.22 14.08 4.22 13.31L4.22 7.48Q5.03 7.39 5.39 7.39Q7.2 7.39 8.24 8.29Q8.29 8.33 8.33 8.37Q9.38 9.35 9.38 11.44Q9.38 13.12 8.6 13.96Z" fill="#2B2A29" fill-opacity="1.000000" fill-rule="evenodd"/>
</svg>
