<svg width="31.741943" height="31.742188" viewBox="0 0 31.7419 31.7422" fill="none" xmlns="http://www.w3.org/2000/svg" xmlns:xlink="http://www.w3.org/1999/xlink">
	<desc>
			Created with Pixso.
	</desc>
	<defs/>
	<rect id="Bag" rx="0.000000" width="30.741936" height="30.741936" transform="translate(0.500000 0.500000)" fill="#FFFFFF" fill-opacity="0"/>
	<path id="Rectangle 324" d="M24.6 3.48C24.22 3.03 23.66 2.76 23.07 2.76L8.91 2.76C8.31 2.76 7.75 3.03 7.37 3.48L4.43 7.02C4.13 7.37 3.96 7.83 3.96 8.3L3.96 26.21C3.96 27.87 5.31 29.21 6.96 29.21L25.01 29.21C26.67 29.21 28.01 27.87 28.01 26.21L28.01 8.3C28.01 7.83 27.85 7.37 27.55 7.02L24.6 3.48Z" stroke="#2B2A29" stroke-opacity="1.000000" stroke-width="2.000000"/>
	<path id="Vector 40" d="M3.96 7.27L27.77 7.27" stroke="#2B2A29" stroke-opacity="1.000000" stroke-width="2.000000"/>
	<path id="Ellipse 38" d="M19.83 13.22C19.83 15.41 18.06 17.19 15.87 17.19C13.67 17.19 11.9 15.41 11.9 13.22" stroke="#2B2A29" stroke-opacity="1.000000" stroke-width="2.000000" stroke-linecap="round"/>
</svg>
