<svg width="19.000000" height="18.642578" viewBox="0 0 19 18.6426" fill="none" xmlns="http://www.w3.org/2000/svg" xmlns:xlink="http://www.w3.org/1999/xlink">
	<desc>
			Created with Pixso.
	</desc>
	<defs/>
	<path id="Vector" d="M1.81 12.81C2.66 11.99 3.8 11.52 5 11.52L14 11.52C15.19 11.52 16.33 11.99 17.18 12.81C18.02 13.64 18.5 14.76 18.5 15.93C18.5 16.52 18.26 17.08 17.84 17.49C17.41 17.91 16.84 18.14 16.25 18.14L2.75 18.14C2.15 18.14 1.58 17.91 1.15 17.49C0.73 17.08 0.5 16.52 0.5 15.93C0.5 14.76 0.97 13.64 1.81 12.81Z" stroke="#2B2A29" stroke-opacity="1.000000" stroke-width="1.000000" stroke-linejoin="round"/>
	<path id="Vector" d="M9.5 7.11C7.63 7.11 6.12 5.63 6.12 3.8C6.12 1.98 7.63 0.5 9.5 0.5C11.36 0.5 12.87 1.98 12.87 3.8C12.87 5.63 11.36 7.11 9.5 7.11Z" stroke="#2B2A29" stroke-opacity="1.000000" stroke-width="1.000000"/>
</svg>
