<svg width="30.927979" height="33.000000" viewBox="0 0 30.928 33" fill="none" xmlns="http://www.w3.org/2000/svg" xmlns:xlink="http://www.w3.org/1999/xlink">
	<desc>
			Created with Pixso.
	</desc>
	<defs/>
	<path id="Vector" d="M24.4 23.74L30.92 30.7L28.77 33L22.25 26.04C19.82 28.11 16.81 29.24 13.7 29.24C6.13 29.24 0 22.69 0 14.62C0 6.54 6.13 0 13.7 0C21.26 0 27.4 6.54 27.4 14.62C27.4 17.93 26.35 21.15 24.4 23.74ZM21.35 22.53C23.28 20.41 24.36 17.57 24.35 14.62C24.35 8.33 19.58 3.24 13.7 3.24C7.81 3.24 3.04 8.33 3.04 14.62C3.04 20.9 7.81 25.99 13.7 25.99C16.47 25.99 19.13 24.84 21.12 22.78L21.35 22.53Z" fill="#000000" fill-opacity="0.500000" fill-rule="nonzero"/>
</svg>
